<?xml version="1.0" standalone="no"?><!DOCTYPE svg PUBLIC "-//W3C//DTD SVG 1.1//EN" "http://www.w3.org/Graphics/SVG/1.1/DTD/svg11.dtd"><svg t="1710922862899" class="icon" viewBox="0 0 1024 1024" version="1.1" xmlns="http://www.w3.org/2000/svg" p-id="3819" xmlns:xlink="http://www.w3.org/1999/xlink" width="200" height="200"><path d="M514.10648 659.6c-13.8-8.1-31.6-3.5-39.7 10.3-8.1 13.8-3.5 31.6 10.3 39.7 34.1 20 69 29.9 105.7 29.9 9.9 0 19.9-0.7 30-2.1 40.9-5.7 79.3-22 116.6-37.7 17.2-7.3 35-14.8 52.6-21.1 43-15.3 86.8-13.2 130.1 6.3 33.8 15.2 54.7 35.8 54.9 36 11.3 11.3 29.6 11.3 40.9 0.1 11.4-11.3 11.4-29.6 0.2-41-1.1-1.1-27.2-27.2-69.9-46.9-57.3-26.5-118-29.6-175.6-9.1-19.1 6.8-37.7 14.7-55.7 22.3-69.6 29.5-129.7 54.9-200.4 13.3z" fill="#f4ea2a" p-id="3820"></path><path d="M945.80648 752.6c-57.3-26.5-118-29.6-175.6-9.1-19.1 6.8-37.7 14.7-55.7 22.3-69.6 29.4-129.7 54.9-200.4 13.3-13.8-8.1-31.6-3.5-39.7 10.3-8.1 13.8-3.5 31.6 10.3 39.7 34.1 20 69 29.9 105.7 29.9 9.9 0 19.9-0.7 30-2.1 40.8-5.7 79.3-22 116.6-37.7 17.2-7.3 35-14.8 52.6-21.1 43-15.3 86.8-13.2 130.1 6.3 33.6 15.1 54.4 35.5 54.9 35.9 11.3 11.3 29.6 11.3 40.9 0.1 11.4-11.3 11.4-29.6 0.2-41-1.1-1.1-27.2-27.1-69.9-46.8z" fill="#f4ea2a" p-id="3821"></path><path d="M428.50648 833c-22.1 4.6-44.9 6.9-67.7 6.9-117.2 0.1-223.6-61.2-282.7-159.5h5.5c103.6 0 201.1-40.4 274.4-113.6 73.3-73.3 113.6-170.7 113.6-274.4 0-33.2-4.1-65.9-12.4-97.5C594.20648 237.3 690.90648 365 690.90648 510c0 21.1-2 42.1-5.9 62.6-3 15.7 7.3 30.9 23 33.9s30.9-7.3 33.9-23c4.6-24.1 7-48.8 7-73.6 0-93.3-33.6-183.5-94.7-254-60.4-69.7-143.7-115.7-234.5-129.6-10.3-1.6-20.7 2.5-27.2 10.8-6.5 8.2-8 19.3-4 29 16.6 40.1 25 82.6 25 126.3 0 182-148.1 330-330 330-16.8 0-33.7-1.3-50.1-3.8-10.3-1.6-20.7 2.5-27.2 10.8-6.5 8.2-8 19.3-4 29 29 70 77.6 129.7 140.5 172.5C207.10648 874.8 282.50648 898 360.80648 898c26.8 0 53.5-2.7 79.5-8.2 15.7-3.3 25.7-18.6 22.5-34.3-3.2-15.7-18.6-25.7-34.3-22.5z" fill="#f4ea2a" p-id="3822"></path></svg>