<?xml version="1.0" standalone="no"?><!DOCTYPE svg PUBLIC "-//W3C//DTD SVG 1.1//EN" "http://www.w3.org/Graphics/SVG/1.1/DTD/svg11.dtd"><svg t="1710922822941" class="icon" viewBox="0 0 1024 1024" version="1.1" xmlns="http://www.w3.org/2000/svg" p-id="2695" xmlns:xlink="http://www.w3.org/1999/xlink" width="200" height="200"><path d="M446.3 798.5c-97.5-26.7-165.5-115.9-165.5-217.1 0-124.1 101-225.1 225.1-225.1S731 457.3 731 581.4c0 15.9 12.9 28.7 28.7 28.7s28.7-12.9 28.7-28.7c0-75.5-29.4-146.4-82.8-199.8-53.4-53.4-124.3-82.8-199.8-82.8S359.4 328.2 306 381.6c-53.4 53.4-82.8 124.3-82.8 199.8 0 63.2 20.4 123 59 172.8 37.4 48.3 90.2 83.7 148.9 99.7 2.5 0.7 5.1 1 7.6 1 12.6 0 24.2-8.4 27.7-21.2 4.3-15.2-4.7-31-20.1-35.2zM505.9 230.4c15.9 0 28.7-12.9 28.7-28.7v-96.9c0-15.9-12.9-28.7-28.7-28.7-15.9 0-28.7 12.9-28.7 28.7v96.9c-0.1 15.8 12.8 28.7 28.7 28.7zM154.4 581.4c0-15.9-12.9-28.7-28.7-28.7h-97C12.9 552.6 0 565.5 0 581.4s12.9 28.7 28.7 28.7h96.9c15.9 0 28.8-12.8 28.8-28.7zM857.4 581.4c0 15.9 12.9 28.7 28.7 28.7H983c15.9 0 28.7-12.9 28.7-28.7s-12.9-28.7-28.7-28.7h-96.9c-15.8-0.1-28.7 12.8-28.7 28.7zM216.7 333.3c5.6 5.6 13 8.4 20.3 8.4 7.4 0 14.7-2.8 20.3-8.4 11.2-11.2 11.2-29.4 0-40.7l-68.5-68.5c-11.2-11.2-29.4-11.2-40.7 0-11.2 11.2-11.2 29.4 0 40.7l68.6 68.5zM216.7 830.4l-68.5 68.5c-11.2 11.2-11.2 29.4 0 40.7 5.6 5.6 13 8.4 20.3 8.4 7.4 0 14.7-2.8 20.3-8.4l68.5-68.5c11.2-11.2 11.2-29.4 0-40.7-11.2-11.2-29.4-11.2-40.6 0zM774.8 341.7c7.4 0 14.7-2.8 20.3-8.4l68.5-68.5c11.2-11.2 11.2-29.4 0-40.7-11.2-11.2-29.4-11.2-40.7 0l-68.5 68.5c-11.2 11.2-11.2 29.4 0 40.6 5.6 5.7 13 8.5 20.4 8.5z" p-id="2696" fill="#1296db"></path><path d="M982.1 677.3c-67.4 34.6-124.6 13.5-190.8-11-17-6.3-34.5-12.8-52.6-18.4C608.6 607.3 512 690.8 508 694.3c-11.9 10.5-13 28.7-2.5 40.6 10.5 11.9 28.7 13 40.6 2.5 0.7-0.7 76.1-65.7 175.7-34.7 16.6 5.2 33.4 11.4 49.7 17.4 35.1 13 71.4 26.4 109.7 31.1 9.5 1.2 18.8 1.7 28 1.7 34.5 0 67.1-8.1 99.2-24.6 14.1-7.3 19.7-24.6 12.4-38.7-7.2-14-24.6-19.6-38.7-12.3z" p-id="2697" fill="#1296db"></path><path d="M982.1 788.7c-67.4 34.6-124.6 13.5-190.8-11-17-6.3-34.5-12.8-52.6-18.4C608.6 718.7 512 802.2 508 805.7c-11.9 10.5-13 28.7-2.5 40.6 10.5 11.9 28.7 13 40.6 2.5 0.7-0.7 76.1-65.7 175.7-34.7 16.6 5.2 33.4 11.4 49.7 17.4 35.1 13 71.4 26.4 109.7 31.1 9.5 1.2 18.8 1.7 28 1.7 34.5 0 67.1-8.1 99.2-24.6 14.1-7.3 19.7-24.6 12.4-38.7-7.2-14-24.6-19.6-38.7-12.3z" p-id="2698" fill="#1296db"></path></svg>